<svg width="244" height="154" viewBox="0 0 244 154" fill="none" xmlns="http://www.w3.org/2000/svg">
<path d="M53.6383 64.6405V0H66.503V64.6405H53.6383Z" fill="white"/>
<path d="M102.358 64.6405V55.4933L101.533 53.4896V37.1116C101.533 34.2077 100.681 31.9427 98.9765 30.3165C97.3272 28.6904 94.7708 27.8773 91.3072 27.8773C88.9432 27.8773 86.6067 28.2838 84.2976 29.0969C82.0436 29.8519 80.1193 30.8973 78.525 32.2331L73.9069 22.7374C76.3259 20.937 79.2397 19.5431 82.6482 18.5558C86.0568 17.5685 89.5205 17.0748 93.039 17.0748C99.8012 17.0748 105.052 18.7591 108.79 22.1276C112.529 25.4961 114.398 30.7521 114.398 37.8957V64.6405H102.358ZM88.8332 65.3375C85.3696 65.3375 82.4009 64.7276 79.9269 63.508C77.4529 62.2303 75.5562 60.517 74.2367 58.3681C72.9173 56.2192 72.2576 53.809 72.2576 51.1374C72.2576 48.3497 72.8898 45.9104 74.1543 43.8196C75.4737 41.7288 77.5354 40.1026 80.3392 38.9411C83.143 37.7215 86.7991 37.1116 91.3072 37.1116H103.1V45.0393H92.7091C89.6854 45.0393 87.5962 45.562 86.4417 46.6074C85.3422 47.6528 84.7924 48.9595 84.7924 50.5276C84.7924 52.2699 85.4247 53.6638 86.6891 54.7092C88.0086 55.6965 89.7953 56.1902 92.0494 56.1902C94.1935 56.1902 96.1178 55.6675 97.8221 54.6221C99.5263 53.5186 100.763 51.9215 101.533 49.8307L103.512 56.1031C102.578 59.1231 100.873 61.4172 98.3993 62.9853C95.9253 64.5534 92.7366 65.3375 88.8332 65.3375Z" fill="white"/>
<path d="M144.506 65.3375C139.723 65.3375 135.462 64.3211 131.723 62.2884C127.985 60.1976 125.044 57.3227 122.899 53.6638C120.81 50.0049 119.766 45.8523 119.766 41.2061C119.766 36.5018 120.81 32.3493 122.899 28.7484C125.044 25.0895 127.985 22.2437 131.723 20.211C135.462 18.1202 139.723 17.0748 144.506 17.0748C149.179 17.0748 153.247 18.1202 156.711 20.211C160.174 22.2437 162.731 25.1766 164.38 29.0098L154.401 34.6724C153.247 32.4654 151.79 30.8392 150.031 29.7938C148.327 28.7484 146.457 28.2257 144.423 28.2257C142.224 28.2257 140.245 28.7484 138.486 29.7938C136.726 30.8392 135.324 32.3202 134.28 34.2368C133.29 36.1534 132.795 38.4765 132.795 41.2061C132.795 43.9358 133.29 46.2589 134.28 48.1755C135.324 50.092 136.726 51.573 138.486 52.6184C140.245 53.6638 142.224 54.1865 144.423 54.1865C146.457 54.1865 148.327 53.6929 150.031 52.7055C151.79 51.6601 153.247 50.0049 154.401 47.7399L164.38 53.4896C162.731 57.2646 160.174 60.1976 156.711 62.2884C153.247 64.3211 149.179 65.3375 144.506 65.3375Z" fill="white"/>
<path d="M189.943 65.3375C184.885 65.3375 180.432 64.2921 176.584 62.2013C172.79 60.1105 169.849 57.2646 167.76 53.6638C165.671 50.0049 164.626 45.8523 164.626 41.2061C164.626 36.5018 165.643 32.3493 167.677 28.7484C169.766 25.0895 172.598 22.2437 176.171 20.211C179.745 18.1202 183.786 17.0748 188.294 17.0748C192.637 17.0748 196.54 18.0621 200.004 20.0368C203.522 21.9533 206.299 24.7411 208.333 28.4C210.367 32.0008 211.384 36.3276 211.384 41.3804C211.384 41.9031 211.357 42.5129 211.302 43.2098C211.247 43.8487 211.192 44.4585 211.137 45.0393H175.099V37.1116H204.375L199.427 39.4638C199.427 37.0245 198.959 34.9047 198.025 33.1043C197.09 31.3039 195.798 29.91 194.149 28.9227C192.499 27.8773 190.575 27.3546 188.376 27.3546C186.177 27.3546 184.225 27.8773 182.521 28.9227C180.872 29.91 179.58 31.3329 178.645 33.1914C177.711 34.9918 177.243 37.1407 177.243 39.638V41.7288C177.243 44.2842 177.766 46.5493 178.81 48.5239C179.91 50.4405 181.422 51.9215 183.346 52.9669C185.325 53.9542 187.634 54.4479 190.273 54.4479C192.637 54.4479 194.699 54.0704 196.458 53.3153C198.272 52.5603 199.921 51.4278 201.406 49.9178L208.25 57.7583C206.216 60.1976 203.66 62.0851 200.581 63.4209C197.502 64.6986 193.956 65.3375 189.943 65.3375Z" fill="white"/>
<path d="M145.087 150.102L126.45 103.233H139.727L155.231 143.568H148.633L164.714 103.233H177.084L158.364 150.102H145.087Z" fill="white"/>
<path d="M179.035 150.102V103.233H191.9V150.102H179.035ZM185.467 96.6995C183.103 96.6995 181.179 95.9735 179.695 94.5216C178.21 93.0696 177.468 91.2692 177.468 89.1203C177.468 86.9714 178.21 85.171 179.695 83.7191C181.179 82.2671 183.103 81.5412 185.467 81.5412C187.831 81.5412 189.756 82.2381 191.24 83.632C192.724 84.9678 193.467 86.7101 193.467 88.859C193.467 91.124 192.724 93.0115 191.24 94.5216C189.811 95.9735 187.886 96.6995 185.467 96.6995Z" fill="white"/>
<path d="M222.559 150.799C217.501 150.799 213.048 149.754 209.199 147.663C205.406 145.572 202.465 142.726 200.376 139.125C198.286 135.466 197.242 131.314 197.242 126.668C197.242 121.963 198.259 117.811 200.293 114.21C202.382 110.551 205.214 107.705 208.787 105.672C212.361 103.582 216.401 102.536 220.91 102.536C225.253 102.536 229.156 103.524 232.62 105.498C236.138 107.415 238.915 110.203 240.949 113.861C242.983 117.462 244 121.789 244 126.842C244 127.365 243.973 127.974 243.918 128.671C243.863 129.31 243.808 129.92 243.753 130.501H207.715V122.573H236.99L232.042 124.925C232.042 122.486 231.575 120.366 230.641 118.566C229.706 116.765 228.414 115.371 226.765 114.384C225.115 113.339 223.191 112.816 220.992 112.816C218.793 112.816 216.841 113.339 215.137 114.384C213.488 115.371 212.196 116.794 211.261 118.653C210.326 120.453 209.859 122.602 209.859 125.1V127.19C209.859 129.746 210.381 132.011 211.426 133.985C212.526 135.902 214.037 137.383 215.962 138.428C217.941 139.416 220.25 139.909 222.889 139.909C225.253 139.909 227.314 139.532 229.074 138.777C230.888 138.022 232.537 136.889 234.022 135.379L240.866 143.22C238.832 145.659 236.276 147.547 233.197 148.882C230.118 150.16 226.572 150.799 222.559 150.799Z" fill="white"/>
<path d="M120.443 104.692C130.12 114.276 130.12 129.814 120.443 139.399C117.724 142.094 114.408 144.125 110.758 145.33C107.108 146.536 103.225 146.882 99.417 146.342L102.92 149.811C103.385 150.271 103.646 150.895 103.646 151.546C103.646 152.197 103.385 152.821 102.92 153.281C102.455 153.741 101.825 154 101.168 154C100.51 154 99.88 153.741 99.4152 153.281L85.397 139.399C75.7192 129.814 75.7192 114.276 85.397 104.692C95.0749 95.108 110.765 95.108 120.443 104.692ZM99.4152 125.516C98.4858 124.596 97.2252 124.078 95.9107 124.078C94.5962 124.078 93.3356 124.596 92.4061 125.516C91.4767 126.437 90.9545 127.685 90.9545 128.987C90.9545 130.288 91.4767 131.537 92.4061 132.457C93.3356 133.378 94.5962 133.895 95.9107 133.895C97.2251 133.895 98.4858 133.378 99.4152 132.457C100.345 131.537 100.867 130.288 100.867 128.987C100.867 127.685 100.345 126.437 99.4152 125.516ZM99.4152 111.633C98.4858 110.713 97.2251 110.196 95.9107 110.196C94.5962 110.196 93.3356 110.713 92.4061 111.633C91.4767 112.554 90.9545 113.802 90.9545 115.104C90.9545 116.406 91.4767 117.654 92.4061 118.575C93.3356 119.495 94.5962 120.012 95.9107 120.012C97.2251 120.012 98.4858 119.495 99.4152 118.575C100.345 117.654 100.867 116.406 100.867 115.104C100.867 113.802 100.345 112.554 99.4152 111.633ZM113.433 125.516C112.504 124.596 111.243 124.078 109.929 124.078C108.614 124.078 107.354 124.596 106.424 125.516C105.495 126.437 104.973 127.685 104.973 128.987C104.973 130.288 105.495 131.537 106.424 132.457C107.354 133.378 108.614 133.895 109.929 133.895C111.243 133.895 112.504 133.378 113.433 132.457C114.363 131.537 114.885 130.288 114.885 128.987C114.885 127.685 114.363 126.437 113.433 125.516ZM113.433 111.633C112.504 110.713 111.243 110.196 109.929 110.196C108.614 110.196 107.354 110.713 106.424 111.633C105.495 112.554 104.973 113.802 104.973 115.104C104.973 116.406 105.495 117.654 106.424 118.575C107.354 119.495 108.614 120.012 109.929 120.012C111.243 120.012 112.504 119.495 113.433 118.575C114.363 117.654 114.885 116.406 114.885 115.104C114.885 113.802 114.363 112.554 113.433 111.633Z" fill="#D82926"/>
<path d="M117.35 107.754C125.32 115.647 125.32 128.443 117.35 136.336C115.111 138.556 112.38 140.229 109.375 141.221C106.369 142.214 103.171 142.499 100.035 142.054L102.92 144.911C103.302 145.29 103.517 145.804 103.517 146.34C103.517 146.876 103.302 147.39 102.92 147.769C102.537 148.148 102.018 148.361 101.477 148.361C100.935 148.361 100.416 148.148 100.034 147.769L88.4892 136.336C80.5193 128.443 80.5193 115.647 88.4892 107.754C96.4592 99.8616 109.38 99.8616 117.35 107.754ZM100.034 124.903C99.2682 124.145 98.23 123.72 97.1475 123.72C96.065 123.72 95.0269 124.145 94.2614 124.903C93.496 125.662 93.066 126.69 93.066 127.762C93.066 128.834 93.496 129.862 94.2614 130.62C95.0269 131.378 96.065 131.804 97.1475 131.804C98.23 131.804 99.2682 131.378 100.034 130.62C100.799 129.862 101.229 128.834 101.229 127.762C101.229 126.69 100.799 125.662 100.034 124.903ZM100.034 113.471C99.2682 112.713 98.23 112.287 97.1475 112.287C96.065 112.287 95.0269 112.713 94.2614 113.471C93.496 114.229 93.066 115.257 93.066 116.329C93.066 117.401 93.496 118.429 94.2614 119.187C95.0269 119.945 96.065 120.371 97.1475 120.371C98.23 120.371 99.2682 119.945 100.034 119.187C100.799 118.429 101.229 117.401 101.229 116.329C101.229 115.257 100.799 114.229 100.034 113.471ZM111.578 124.903C110.813 124.145 109.774 123.72 108.692 123.72C107.609 123.72 106.571 124.145 105.806 124.903C105.04 125.662 104.61 126.69 104.61 127.762C104.61 128.834 105.04 129.862 105.806 130.62C106.571 131.378 107.609 131.804 108.692 131.804C109.774 131.804 110.813 131.378 111.578 130.62C112.343 129.862 112.773 128.834 112.773 127.762C112.773 126.69 112.343 125.662 111.578 124.903ZM111.578 113.471C110.813 112.713 109.774 112.287 108.692 112.287C107.609 112.287 106.571 112.713 105.806 113.471C105.04 114.229 104.61 115.257 104.61 116.329C104.61 117.401 105.04 118.429 105.806 119.187C106.571 119.945 107.609 120.371 108.692 120.371C109.774 120.371 110.813 119.945 111.578 119.187C112.343 118.429 112.773 117.401 112.773 116.329C112.773 115.257 112.343 114.229 111.578 113.471Z" fill="#EE2E3B"/>
<path fill-rule="evenodd" clip-rule="evenodd" d="M26.2241 65.3375C22.4857 65.3375 19.2145 64.4663 16.4107 62.724C15.0957 61.9068 13.9137 60.8916 12.8647 59.6784V103.233V107.977C13.9259 106.821 15.1354 105.85 16.4932 105.063C19.352 103.378 22.5956 102.536 26.2241 102.536C30.2925 102.536 33.8385 103.64 36.8622 105.847C38.4713 106.97 39.7951 108.41 40.8335 110.168C42.1105 108.453 43.6731 106.984 45.5212 105.76C48.8198 103.611 52.5857 102.536 56.819 102.536C60.3375 102.536 63.4438 103.291 66.1377 104.801C68.8865 106.253 71.0307 108.518 72.5701 111.596C74.1644 114.616 74.9615 118.508 74.9615 123.27V150.102H62.0968V125.361C62.0968 121.586 61.3547 118.798 59.8703 116.998C58.3859 115.197 56.2967 114.297 53.6028 114.297C51.7336 114.297 50.0568 114.762 48.5724 115.691C47.088 116.562 45.9335 117.898 45.1088 119.698C44.2842 121.499 43.8719 123.793 43.8719 126.58V150.102H31.0072V125.361C31.0072 121.586 30.265 118.798 28.7806 116.998C27.3512 115.197 25.2895 114.297 22.5956 114.297C20.7264 114.297 19.0496 114.762 17.5652 115.691C16.0808 116.562 14.9263 117.898 14.1017 119.698C13.277 121.499 12.8647 123.793 12.8647 126.58V150.102H0V103.233V17.7717H12.2874V23.1836C13.397 21.7696 14.6889 20.6045 16.1633 19.6883C18.9672 17.946 22.3208 17.0748 26.2241 17.0748C30.4024 17.0748 34.1409 18.0912 37.4395 20.1239C40.7931 22.0985 43.432 24.8863 45.3562 28.4871C47.3354 32.0879 48.325 36.3276 48.325 41.2061C48.325 46.1427 47.3354 50.4115 45.3562 54.0123C43.432 57.6131 40.7931 60.4009 37.4395 62.3755C34.1409 64.3501 30.4024 65.3375 26.2241 65.3375ZM29.6877 52.6184C28.0384 53.6638 26.1417 54.1865 23.9976 54.1865C21.8535 54.1865 19.9293 53.6638 18.225 52.6184C16.5207 51.573 15.1737 50.092 14.1841 48.1755C13.1945 46.2008 12.6997 43.8777 12.6997 41.2061C12.6997 38.4765 13.1945 36.1534 14.1841 34.2368C15.1737 32.3202 16.5207 30.8392 18.225 29.7938C19.9293 28.7484 21.8535 28.2257 23.9976 28.2257C26.1417 28.2257 28.0384 28.7484 29.6877 29.7938C31.392 30.8392 32.739 32.3202 33.7285 34.2368C34.7731 36.1534 35.2954 38.4765 35.2954 41.2061C35.2954 43.8777 34.7731 46.2008 33.7285 48.1755C32.739 50.092 31.392 51.573 29.6877 52.6184Z" fill="white"/>
</svg>
